<svg width="430" height="144" viewBox="0 0 430 144" fill="none" xmlns="http://www.w3.org/2000/svg">
<path d="M66.4 67.35C67.3 68.15 68.2 68.95 69.1 69.75C70 70.45 70.9 71.25 71.8 72.15C72.7 72.95 73.15 73.65 73.15 74.25C73.25 74.75 73.05 75.6 72.55 76.8C71.75 77.9 70.95 79.05 70.15 80.25C69.45 81.45 68.7 82.45 67.9 83.25C63 89.25 58 95 52.9 100.5C47.8 106 42.4 111.25 36.7 116.25C35.2 117.75 33.55 119.05 31.75 120.15C30.05 121.35 28.2 122.25 26.2 122.85C23.6 123.65 21.3 123.3 19.3 121.8C17.3 120.1 15.3 118.45 13.3 116.85C11.3 115.25 9.35 113.6 7.45 111.9C4.55 108.7 2.75 105.2 2.05 101.4C1.25 97.5 1 93.3 1.3 88.8C1.5 85.6 2 82.45 2.8 79.35C3.6 76.25 4.55 73.25 5.65 70.35C10.05 59.55 15.3 49.95 21.4 41.55C27.5 33.15 34.7 25.7 43 19.2C44.1 18.5 45.15 17.85 46.15 17.25C47.25 16.55 48.35 15.95 49.45 15.45C51.65 14.35 53.65 14.65 55.45 16.35C55.95 17.05 56.5 17.7 57.1 18.3C57.8 18.8 58.45 19.3 59.05 19.8C60.05 19.3 61 18.8 61.9 18.3C62.9 17.7 63.85 17.1 64.75 16.5C66.15 15.7 67.5 15.35 68.8 15.45C70.1 15.55 71.4 16.45 72.7 18.15C73.2 18.75 73.7 19.4 74.2 20.1C74.8 20.7 75.35 21.4 75.85 22.2C76.65 23 77 23.75 76.9 24.45C76.9 25.05 76.55 25.9 75.85 27L74.65 28.2C71.95 31.4 69.25 34.65 66.55 37.95C63.85 41.15 61.2 44.5 58.6 48C57.4 49.4 56.25 50.95 55.15 52.65C54.05 54.35 52.95 56.05 51.85 57.75C51.35 58.55 50.95 59.35 50.65 60.15C50.35 60.95 50.3 62 50.5 63.3C50.6 64.4 50.3 65.15 49.6 65.55C49 65.85 48.3 65.7 47.5 65.1C46.2 64 45 62.9 43.9 61.8C42.8 60.7 41.65 59.6 40.45 58.5C40.25 58.2 40.05 57.9 39.85 57.6C39.75 57.3 39.55 56.85 39.25 56.25C36.75 60.15 34.35 64.1 32.05 68.1C29.85 72.1 27.85 76.2 26.05 80.4C24.25 84.5 22.7 88.75 21.4 93.15C20.2 97.55 19.4 102.2 19 107.1C19.1 107.4 19.3 107.7 19.6 108C20.3 107.7 20.95 107.4 21.55 107.1C22.25 106.7 22.95 106.2 23.65 105.6C25.95 104 28.25 102.4 30.55 100.8C32.95 99.1 35.25 97.2 37.45 95.1C41.35 91.8 45.2 88.3 49 84.6C52.8 80.9 56.6 77.3 60.4 73.8C61.5 72.9 62.5 71.9 63.4 70.8C64.3 69.6 65.3 68.45 66.4 67.35ZM118.035 52.65C122.035 55.25 124.735 58.3 126.135 61.8C127.635 65.3 128.135 69 127.635 72.9C127.235 76.7 126.085 80.5 124.185 84.3C122.285 88.1 119.935 91.6 117.135 94.8C114.435 97.9 111.435 100.55 108.135 102.75C104.935 104.95 101.835 106.35 98.8352 106.95C97.2352 107.15 95.7852 107.2 94.4852 107.1C93.2852 107 92.1352 106.5 91.0352 105.6C88.9352 104.2 86.8852 102.85 84.8852 101.55C82.8852 100.15 80.9852 98.75 79.1852 97.35C77.3852 95.85 76.2352 94.2 75.7352 92.4C75.1352 90.5 74.9852 88.65 75.2852 86.85C75.5852 83.25 76.8352 79.2 79.0352 74.7C81.3352 70.2 84.0852 65.8 87.2852 61.5C90.4852 57.2 93.8852 53.35 97.4852 49.95C101.085 46.45 104.435 44 107.535 42.6C108.335 42.1 109.235 42 110.235 42.3C111.235 42.5 112.135 42.85 112.935 43.35C113.735 44.15 114.585 44.9 115.485 45.6C116.385 46.3 117.185 47 117.885 47.7C119.285 48.9 119.985 49.8 119.985 50.4C119.985 50.9 119.335 51.65 118.035 52.65ZM91.4852 94.65C93.6852 94.85 95.9852 94.3 98.3852 93C100.885 91.6 103.235 89.8 105.435 87.6C107.635 85.4 109.635 82.9 111.435 80.1C113.235 77.2 114.585 74.35 115.485 71.55C116.385 68.65 116.735 65.85 116.535 63.15C116.335 60.45 115.385 58.15 113.685 56.25C108.585 61.65 104.185 67.7 100.485 74.4C96.7852 81.1 93.7852 87.85 91.4852 94.65ZM148.51 79.8C149.31 79 150.66 77.3 152.56 74.7C154.56 72.1 156.66 69.35 158.86 66.45C161.06 63.55 163.16 60.8 165.16 58.2C167.16 55.6 168.66 53.9 169.66 53.1C170.46 52.3 171.36 51.65 172.36 51.15C173.46 50.55 174.46 50.7 175.36 51.6C176.16 52.2 176.91 52.85 177.61 53.55C178.41 54.15 179.21 54.75 180.01 55.35C180.41 55.75 180.61 56.55 180.61 57.75C180.71 58.95 180.71 60.3 180.61 61.8C180.61 63.2 180.56 64.6 180.46 66C180.36 67.4 180.31 68.45 180.31 69.15C182.21 66.65 184.31 63.85 186.61 60.75C189.01 57.55 191.41 54.45 193.81 51.45C196.21 48.45 198.51 45.75 200.71 43.35C203.01 40.95 205.06 39.3 206.86 38.4C207.96 37.9 208.81 37.75 209.41 37.95C210.11 38.05 210.71 38.4 211.21 39C211.71 39.5 212.16 40.1 212.56 40.8C213.06 41.5 213.61 42.15 214.21 42.75C215.41 43.95 216.11 45.3 216.31 46.8C216.51 48.3 216.41 49.85 216.01 51.45C215.61 53.05 215.06 54.65 214.36 56.25C213.66 57.75 213.06 59.05 212.56 60.15C211.06 63.25 209.16 66.9 206.86 71.1C204.66 75.2 202.46 79.45 200.26 83.85C198.06 88.15 196.11 92.35 194.41 96.45C192.81 100.45 191.81 103.95 191.41 106.95C191.21 109.45 190.46 110.15 189.16 109.05C187.96 108.45 186.61 107.65 185.11 106.65C183.61 105.55 182.21 104.35 180.91 103.05C179.71 101.65 178.81 100.2 178.21 98.7C177.61 97.1 177.61 95.45 178.21 93.75C178.71 92.35 179.51 90.55 180.61 88.35C181.81 86.15 183.06 83.8 184.36 81.3C185.76 78.7 187.11 76.05 188.41 73.35C189.81 70.55 191.06 67.85 192.16 65.25C189.66 68.45 187.16 71.7 184.66 75C182.26 78.2 179.61 81.8 176.71 85.8C175.91 86.7 175.21 87.4 174.61 87.9C174.11 88.3 173.61 88.55 173.11 88.65C172.61 88.65 172.06 88.5 171.46 88.2C170.96 87.9 170.26 87.45 169.36 86.85C168.56 86.15 167.81 85.55 167.11 85.05C166.41 84.55 165.71 84.05 165.01 83.55C164.21 82.75 163.66 82.05 163.36 81.45C163.16 80.85 163.26 80 163.66 78.9C163.96 77.8 164.26 76.6 164.56 75.3C164.86 74 165.16 72.55 165.46 70.95C165.06 71.55 164.71 72 164.41 72.3C164.11 72.6 163.86 72.85 163.66 73.05C154.06 85.05 145.76 98.05 138.76 112.05C138.16 113.25 137.66 114.15 137.26 114.75C136.96 115.35 136.56 115.75 136.06 115.95C135.66 116.05 135.16 115.95 134.56 115.65C133.96 115.35 133.11 114.85 132.01 114.15C129.61 112.45 127.86 110.8 126.76 109.2C125.66 107.5 125.31 105.1 125.71 102C126.01 99.3 126.76 95.85 127.96 91.65C129.16 87.35 130.71 82.75 132.61 77.85C134.41 72.85 136.46 67.7 138.76 62.4C141.16 57.1 143.61 52.1 146.11 47.4C148.71 42.6 151.36 38.3 154.06 34.5C156.86 30.7 159.51 27.8 162.01 25.8C163.91 24.1 165.96 23.65 168.16 24.45C170.36 25.15 172.21 26.35 173.71 28.05C174.31 28.65 174.91 29.3 175.51 30C176.21 30.7 176.71 31.35 177.01 31.95C177.41 32.55 177.51 33.1 177.31 33.6C177.21 34.1 176.71 34.55 175.81 34.95C174.11 35.55 172.31 37.05 170.41 39.45C168.51 41.85 166.61 44.7 164.71 48C162.81 51.2 160.96 54.6 159.16 58.2C157.36 61.8 155.71 65.2 154.21 68.4C152.81 71.5 151.56 74.15 150.46 76.35C149.46 78.45 148.81 79.6 148.51 79.8ZM229.097 84.75L232.697 80.7C237.297 75.5 242.097 70.65 247.097 66.15C252.197 61.55 257.697 57.4 263.597 53.7C266.097 52.1 268.647 50.7 271.247 49.5C273.847 48.2 276.597 47.15 279.497 46.35C280.797 45.95 282.147 45.65 283.547 45.45C284.947 45.25 286.097 45.35 286.997 45.75C290.497 47.25 293.497 49.55 295.997 52.65C296.797 53.45 297.197 54.4 297.197 55.5C297.297 56.5 297.097 57.5 296.597 58.5C296.297 59.3 295.397 60.75 293.897 62.85C292.397 64.95 290.647 67.4 288.647 70.2C286.647 73 284.547 76 282.347 79.2C280.247 82.3 278.347 85.25 276.647 88.05C275.047 90.85 273.797 93.35 272.897 95.55C272.097 97.65 272.047 99.1 272.747 99.9C273.047 100.3 273.247 100.7 273.347 101.1C273.547 101.5 273.447 101.95 273.047 102.45C272.447 103.55 271.597 103.65 270.497 102.75C268.697 101.65 266.847 100.6 264.947 99.6C263.147 98.5 261.397 97.25 259.697 95.85C257.497 93.95 256.197 91.55 255.797 88.65C255.397 85.65 255.897 82.85 257.297 80.25C259.597 75.75 261.997 72.05 264.497 69.15C266.997 66.25 269.947 63.3 273.347 60.3C274.747 58.9 275.497 57.9 275.597 57.3C275.797 56.6 275.047 56.75 273.347 57.75C271.247 58.75 269.397 59.75 267.797 60.75C266.197 61.65 264.697 62.65 263.297 63.75C261.997 64.85 260.647 66.05 259.247 67.35C257.847 68.55 256.247 69.9 254.447 71.4C249.147 75.9 244.097 80.65 239.297 85.65C234.597 90.55 230.347 96 226.547 102C225.947 102.9 225.247 103.55 224.447 103.95C223.647 104.25 222.847 104.65 222.047 105.15C221.647 105.35 221.097 105.35 220.397 105.15C219.697 104.85 219.047 104.6 218.447 104.4C217.547 104 216.647 103.6 215.747 103.2C214.847 102.8 213.947 102.4 213.047 102C210.247 100.8 208.847 98.7 208.847 95.7C208.647 93.2 208.797 90.75 209.297 88.35C210.897 80.45 213.597 72.8 217.397 65.4C221.297 57.9 225.897 51.5 231.197 46.2L234.347 43.5C236.347 42.1 238.297 42.05 240.197 43.35C241.197 44.15 242.197 44.85 243.197 45.45C244.197 46.05 245.197 46.7 246.197 47.4C247.297 48.3 247.997 49.1 248.297 49.8C248.597 50.5 248.347 51.45 247.547 52.65C244.647 57.45 241.547 62.1 238.247 66.6C234.947 71.1 232.197 75.95 229.997 81.15C229.797 81.75 229.547 82.35 229.247 82.95C229.047 83.45 228.847 83.95 228.647 84.45C228.747 84.55 228.797 84.6 228.797 84.6C228.897 84.6 228.997 84.65 229.097 84.75ZM289.682 89.4C291.482 82.8 293.682 76.55 296.282 70.65C298.882 64.75 302.282 59.55 306.482 55.05C307.082 54.45 307.882 54.25 308.882 54.45C309.882 54.65 310.882 55.05 311.882 55.65C312.982 56.25 313.932 56.95 314.732 57.75C315.632 58.45 316.232 59 316.532 59.4C317.632 60.4 318.182 61.25 318.182 61.95C318.282 62.55 317.932 63.4 317.132 64.5C313.632 71.5 310.332 78.3 307.232 84.9C304.132 91.4 301.582 97.75 299.582 103.95C298.982 105.75 297.932 106.15 296.432 105.15C295.232 104.15 294.132 103.25 293.132 102.45C292.032 101.55 291.082 100.5 290.282 99.3C288.982 97.9 288.432 96.3 288.632 94.5C288.832 92.6 289.182 90.9 289.682 89.4ZM314.732 51.75C313.632 50.35 313.032 48.85 312.932 47.25C312.832 45.55 313.032 43.9 313.532 42.3C314.032 40.6 314.732 38.95 315.632 37.35C316.532 35.75 317.382 34.3 318.182 33C318.982 31.8 319.632 31.2 320.132 31.2C320.732 31.1 321.482 31.45 322.382 32.25C323.282 33.25 324.132 34.2 324.932 35.1C325.832 36 326.682 36.95 327.482 37.95C328.682 39.05 328.882 40.25 328.082 41.55C326.882 42.85 325.832 44.25 324.932 45.75C324.132 47.25 323.382 48.75 322.682 50.25C322.182 51.35 321.682 52.3 321.182 53.1C320.782 53.8 320.282 54.25 319.682 54.45C319.182 54.65 318.532 54.55 317.732 54.15C316.932 53.75 315.932 52.95 314.732 51.75ZM371.745 14.4C373.345 14.4 374.845 14.45 376.245 14.55C377.745 14.55 379.345 14.5 381.045 14.4C391.545 14 401.945 14.15 412.245 14.85C414.545 14.95 416.645 15.2 418.545 15.6C420.445 16 422.095 16.7 423.495 17.7C424.995 18.6 426.195 19.9 427.095 21.6C427.995 23.2 428.595 25.25 428.895 27.75C428.995 28.25 428.895 28.65 428.595 28.95C428.295 29.25 427.845 29.3 427.245 29.1C424.145 28.2 420.495 27.55 416.295 27.15C412.195 26.75 407.895 26.5 403.395 26.4C398.895 26.3 394.395 26.35 389.895 26.55C385.395 26.65 381.245 26.85 377.445 27.15C373.745 27.35 370.545 27.6 367.845 27.9C365.245 28.2 363.545 28.45 362.745 28.65C355.445 40.85 348.545 53.1 342.045 65.4C335.545 77.6 330.145 90.2 325.845 103.2C325.045 105.5 324.395 107.6 323.895 109.5C323.495 111.4 323.345 112.9 323.445 114C323.445 114.5 323.345 115.05 323.145 115.65C323.045 116.25 322.845 116.65 322.545 116.85C322.345 117.05 321.995 117.15 321.495 117.15C320.995 117.15 320.645 117.1 320.445 117C319.645 116.6 318.645 116.1 317.445 115.5C316.145 114.8 314.845 114.05 313.545 113.25C312.245 112.45 311.095 111.6 310.095 110.7C308.995 109.8 308.295 108.8 307.995 107.7C307.495 106.1 307.495 104 307.995 101.4C308.395 98.8 309.095 96 310.095 93C311.095 89.9 312.245 86.75 313.545 83.55C314.845 80.25 316.195 77.1 317.595 74.1C318.895 71.1 320.095 68.35 321.195 65.85C322.395 63.35 323.345 61.3 324.045 59.7C326.045 55 328.095 50.4 330.195 45.9C332.395 41.4 334.645 37 336.945 32.7C333.445 33 330.095 33.7 326.895 34.8C323.795 35.8 320.645 37.15 317.445 38.85C317.145 38.45 316.795 37.65 316.395 36.45C315.895 35.25 315.595 33.95 315.495 32.55C315.395 31.05 315.595 29.6 316.095 28.2C316.595 26.7 317.695 25.45 319.395 24.45C323.595 22.15 327.895 20.5 332.295 19.5C336.795 18.5 341.145 17.75 345.345 17.25C346.645 17.15 347.795 16.65 348.795 15.75C349.895 14.85 350.945 13.75 351.945 12.45C352.945 11.15 353.895 9.8 354.795 8.4C355.795 7 356.795 5.7 357.795 4.49999C358.295 3.9 358.945 3.25 359.745 2.54999C360.645 1.85 361.545 1.3 362.445 0.899996C363.345 0.399996 364.245 0.199996 365.145 0.299994C366.045 0.299994 366.795 0.749995 367.395 1.64999C368.095 2.95 369.195 4 370.695 4.8C372.295 5.59999 373.395 6.74999 373.995 8.24999C374.095 8.54999 373.995 8.94999 373.695 9.44999C373.495 9.94999 373.245 10.5 372.945 11.1C372.645 11.7 372.345 12.3 372.045 12.9C371.845 13.5 371.745 14 371.745 14.4ZM337.195 119.7C337.695 120.2 338.145 120.7 338.545 121.2C338.945 121.8 339.345 122.35 339.745 122.85C340.845 124.15 341.895 125.25 342.895 126.15C343.795 127.15 344.745 127.8 345.745 128.1C346.745 128.4 347.795 128.3 348.895 127.8C350.095 127.4 351.495 126.4 353.095 124.8C354.695 123.2 356.395 121.2 358.195 118.8C359.995 116.3 361.745 113.65 363.445 110.85C365.245 108.05 366.945 105.25 368.545 102.45C370.245 99.55 371.745 96.85 373.045 94.35C374.445 91.85 375.645 89.65 376.645 87.75C377.645 85.85 378.395 84.5 378.895 83.7C378.495 83.6 377.545 84.2 376.045 85.5C374.545 86.7 372.845 88.2 370.945 90C369.145 91.8 367.245 93.7 365.245 95.7C363.345 97.7 361.695 99.35 360.295 100.65C358.895 102.05 357.345 102.95 355.645 103.35C354.045 103.75 352.495 103.25 350.995 101.85C350.095 101.05 349.145 100.2 348.145 99.3C347.245 98.4 346.245 97.5 345.145 96.6C343.345 94.8 342.445 92.3 342.445 89.1C342.445 86.6 342.945 83.7 343.945 80.4C344.845 77.1 346.145 73.55 347.845 69.75C349.645 65.95 351.695 62.05 353.995 58.05C356.395 54.05 358.945 50.15 361.645 46.35C362.245 45.55 362.895 45.2 363.595 45.3C364.295 45.4 365.145 45.75 366.145 46.35C366.945 47.15 367.645 47.95 368.245 48.75C368.945 49.55 369.695 50.45 370.495 51.45C371.595 52.25 372.095 52.9 371.995 53.4C371.995 53.9 371.645 54.95 370.945 56.55C369.845 58.95 368.445 61.8 366.745 65.1C365.045 68.3 363.295 71.65 361.495 75.15C359.695 78.65 358.045 82.1 356.545 85.5C355.045 88.8 353.995 91.7 353.395 94.2C356.995 91.4 360.695 87.95 364.495 83.85C368.295 79.65 372.045 75.3 375.745 70.8C379.445 66.2 383.045 61.7 386.545 57.3C390.045 52.8 393.295 48.85 396.295 45.45C397.995 43.75 399.345 43.1 400.345 43.5C401.445 43.9 402.795 44.95 404.395 46.65C405.595 47.85 406.545 48.75 407.245 49.35C408.045 49.95 408.595 50.55 408.895 51.15C409.195 51.65 409.245 52.3 409.045 53.1C408.845 53.9 408.395 55.1 407.695 56.7C404.695 63.6 401.345 70.85 397.645 78.45C394.045 85.95 390.795 93.25 387.895 100.35C386.195 104.55 384.445 108.7 382.645 112.8C380.845 116.9 378.945 121 376.945 125.1C374.645 128.8 372.295 132.2 369.895 135.3C367.495 138.5 364.395 140.9 360.595 142.5C357.695 143.3 354.895 143.25 352.195 142.35C349.595 141.55 347.195 140.25 344.995 138.45C342.695 136.65 340.695 134.55 338.995 132.15C337.295 129.85 335.995 127.6 335.095 125.4C334.595 124.2 334.445 123.35 334.645 122.85C334.845 122.35 335.695 121.3 337.195 119.7Z" fill="#F26C6C"/>
</svg>
